<svg width="320" height="220" viewBox="0 0 320 220" fill="none" xmlns="http://www.w3.org/2000/svg">
  <rect width="320" height="220" rx="28" fill="#F8FBFF"/>
  <rect x="54" y="34" width="212" height="152" rx="24" fill="white" stroke="#DDE8F8" stroke-width="2"/>
  <rect x="82" y="58" width="92" height="10" rx="5" fill="#2468D6"/>
  <rect x="82" y="78" width="132" height="10" rx="5" fill="#B7CBEA"/>
  <rect x="82" y="98" width="112" height="10" rx="5" fill="#B7CBEA"/>
  <path d="M160 128C174.359 128 186 116.359 186 102C186 87.6406 174.359 76 160 76C145.641 76 134 87.6406 134 102C134 116.359 145.641 128 160 128Z" fill="#1F9F9B"/>
  <path d="M160 90V114" stroke="white" stroke-width="8" stroke-linecap="round"/>
  <path d="M152 102H168" stroke="white" stroke-width="8" stroke-linecap="round"/>
  <circle cx="228" cy="100" r="24" fill="#F28C28"/>
  <path d="M220 100L226 106L240 92" stroke="white" stroke-width="6" stroke-linecap="round" stroke-linejoin="round"/>
</svg>
